<?xml version="1.0" encoding="UTF-8" standalone="no"?>
<!DOCTYPE svg PUBLIC "-//W3C//DTD SVG 1.1//EN" "http://www.w3.org/Graphics/SVG/1.1/DTD/svg11.dtd">
<svg xmlns="http://www.w3.org/2000/svg" version="1.1" viewBox="0 0 320 320">
<g stroke-width="2.0" fill="none" stroke-linecap="butt">
<path stroke="#704db6" vector-effect="non-scaling-stroke" d="
  M 160.21 75.00
  Q 156.35 86.68 153.19 92.44
  Q 151.63 95.28 148.97 93.49
  C 148.72 93.31 148.52 93.04 148.40 92.72
  Q 142.69 77.08 132.31 61.19
  Q 119.65 41.80 99.82 32.38
  Q 92.51 28.91 84.54 27.98
  Q 74.74 26.84 64.90 28.23
  Q 62.15 28.62 56.55 30.00
  Q 52.41 31.03 48.23 31.90
  C 48.03 31.94 47.73 31.84 47.43 31.63
  Q 47.15 31.43 46.75 31.46"
/>
<path stroke="#704db6" vector-effect="non-scaling-stroke" d="
  M 161.54 297.75
  L 161.23 296.93
  C 161.10 296.59 161.09 296.27 161.19 296.04
  Q 162.33 293.35 164.42 291.33
  Q 166.29 289.53 166.37 289.45
  Q 180.20 274.75 194.31 260.32
  Q 222.85 231.12 247.69 198.72
  Q 259.91 182.78 269.85 165.33
  Q 289.55 130.75 287.95 90.75
  Q 287.61 82.31 285.00 72.75
  Q 280.31 55.60 268.21 44.10
  Q 261.01 37.26 251.63 33.10
  Q 240.64 28.23 228.38 27.59
  Q 226.81 27.51 221.13 27.75
  Q 217.29 27.90 213.86 27.58
  Q 212.04 27.41 210.27 27.88
  Q 207.63 28.57 206.75 26.79"
/>
<path stroke="#aa7bdb" vector-effect="non-scaling-stroke" d="
  M 189.46 85.03
  Q 192.29 86.83 195.76 86.31
  Q 213.65 83.62 226.91 71.41
  Q 232.91 65.88 232.25 58.25
  Q 231.53 49.95 223.45 46.63
  Q 217.69 44.28 211.99 46.73
  Q 204.02 50.15 198.92 57.14
  Q 191.84 66.82 187.30 77.92
  Q 185.44 82.46 189.46 85.03"
/>
<path stroke="#aa7bdb" vector-effect="non-scaling-stroke" d="
  M 46.19 58.94
  Q 38.94 66.48 35.82 75.79
  Q 33.00 84.17 33.91 94.95
  Q 35.10 109.04 41.95 121.73
  Q 42.87 123.44 43.69 124.19
  Q 45.72 126.04 47.17 123.77
  Q 47.77 122.84 48.37 120.47
  Q 49.78 114.91 51.28 109.37
  Q 56.01 91.87 70.87 81.59
  Q 75.27 78.54 79.46 75.21
  Q 84.15 71.48 86.02 66.10
  Q 87.57 61.65 86.30 57.86
  Q 84.90 53.69 80.75 51.00
  Q 71.63 45.08 61.58 48.73
  Q 53.00 51.84 46.19 58.94"
/>
</g>
<path fill="#5235a6" d="
  M 160.21 75.00
  Q 156.35 86.68 153.19 92.44
  Q 151.63 95.28 148.97 93.49
  C 148.72 93.31 148.52 93.04 148.40 92.72
  Q 142.69 77.08 132.31 61.19
  Q 119.65 41.80 99.82 32.38
  Q 92.51 28.91 84.54 27.98
  Q 74.74 26.84 64.90 28.23
  Q 62.15 28.62 56.55 30.00
  Q 52.41 31.03 48.23 31.90
  C 48.03 31.94 47.73 31.84 47.43 31.63
  Q 47.15 31.43 46.75 31.46
  Q 48.28 30.00 51.56 28.56
  Q 66.49 22.01 81.49 21.29
  Q 111.89 19.84 134.19 37.81
  Q 150.93 51.31 159.33 73.29
  Q 159.36 73.37 159.49 74.23
  Q 159.58 74.79 160.21 75.00
  Z"
/>
<path fill="#5235a6" d="
  M 161.54 297.75
  L 161.23 296.93
  C 161.10 296.59 161.09 296.27 161.19 296.04
  Q 162.33 293.35 164.42 291.33
  Q 166.29 289.53 166.37 289.45
  Q 180.20 274.75 194.31 260.32
  Q 222.85 231.12 247.69 198.72
  Q 259.91 182.78 269.85 165.33
  Q 289.55 130.75 287.95 90.75
  Q 287.61 82.31 285.00 72.75
  Q 280.31 55.60 268.21 44.10
  Q 261.01 37.26 251.63 33.10
  Q 240.64 28.23 228.38 27.59
  Q 226.81 27.51 221.13 27.75
  Q 217.29 27.90 213.86 27.58
  Q 212.04 27.41 210.27 27.88
  Q 207.63 28.57 206.75 26.79
  Q 217.59 22.08 230.75 21.50
  Q 248.89 20.71 264.92 26.66
  Q 274.53 30.23 282.47 36.07
  Q 303.11 51.26 308.88 77.67
  Q 311.75 90.81 311.04 104.06
  Q 310.55 113.13 308.51 123.88
  Q 305.06 142.13 296.69 157.44
  Q 283.33 181.85 264.06 204.06
  Q 249.53 220.82 236.93 233.18
  Q 203.40 266.11 163.81 296.31
  Q 162.29 297.48 161.54 297.75
  Z"
/>
<path fill="#8d65c5" d="
  M 206.75 26.79
  Q 207.63 28.57 210.27 27.88
  Q 212.04 27.41 213.86 27.58
  Q 217.29 27.90 221.13 27.75
  Q 226.81 27.51 228.38 27.59
  Q 240.64 28.23 251.63 33.10
  Q 261.01 37.26 268.21 44.10
  Q 280.31 55.60 285.00 72.75
  Q 287.61 82.31 287.95 90.75
  Q 289.55 130.75 269.85 165.33
  Q 259.91 182.78 247.69 198.72
  Q 222.85 231.12 194.31 260.32
  Q 180.20 274.75 166.37 289.45
  Q 166.29 289.53 164.42 291.33
  Q 162.33 293.35 161.19 296.04
  C 161.09 296.27 161.10 296.59 161.23 296.93
  L 161.54 297.75
  Q 160.73 299.28 159.56 298.44
  Q 140.76 284.95 120.45 267.40
  Q 111.73 259.87 105.40 254.25
  Q 75.99 228.14 51.19 198.56
  Q 37.26 181.96 26.01 162.33
  Q 8.76 132.21 8.75 98.75
  Q 8.75 87.14 12.72 73.45
  Q 19.49 50.12 38.94 35.69
  Q 41.47 33.81 46.75 31.46
  Q 47.15 31.43 47.43 31.63
  C 47.73 31.84 48.03 31.94 48.23 31.90
  Q 52.41 31.03 56.55 30.00
  Q 62.15 28.62 64.90 28.23
  Q 74.74 26.84 84.54 27.98
  Q 92.51 28.91 99.82 32.38
  Q 119.65 41.80 132.31 61.19
  Q 142.69 77.08 148.40 92.72
  C 148.52 93.04 148.72 93.31 148.97 93.49
  Q 151.63 95.28 153.19 92.44
  Q 156.35 86.68 160.21 75.00
  Q 169.90 53.18 187.69 38.19
  Q 195.96 31.21 206.75 26.79
  Z
  M 189.46 85.03
  Q 192.29 86.83 195.76 86.31
  Q 213.65 83.62 226.91 71.41
  Q 232.91 65.88 232.25 58.25
  Q 231.53 49.95 223.45 46.63
  Q 217.69 44.28 211.99 46.73
  Q 204.02 50.15 198.92 57.14
  Q 191.84 66.82 187.30 77.92
  Q 185.44 82.46 189.46 85.03
  Z
  M 46.19 58.94
  Q 38.94 66.48 35.82 75.79
  Q 33.00 84.17 33.91 94.95
  Q 35.10 109.04 41.95 121.73
  Q 42.87 123.44 43.69 124.19
  Q 45.72 126.04 47.17 123.77
  Q 47.77 122.84 48.37 120.47
  Q 49.78 114.91 51.28 109.37
  Q 56.01 91.87 70.87 81.59
  Q 75.27 78.54 79.46 75.21
  Q 84.15 71.48 86.02 66.10
  Q 87.57 61.65 86.30 57.86
  Q 84.90 53.69 80.75 51.00
  Q 71.63 45.08 61.58 48.73
  Q 53.00 51.84 46.19 58.94
  Z"
/>
<path fill="#c790f1" d="
  M 189.46 85.03
  Q 185.44 82.46 187.30 77.92
  Q 191.84 66.82 198.92 57.14
  Q 204.02 50.15 211.99 46.73
  Q 217.69 44.28 223.45 46.63
  Q 231.53 49.95 232.25 58.25
  Q 232.91 65.88 226.91 71.41
  Q 213.65 83.62 195.76 86.31
  Q 192.29 86.83 189.46 85.03
  Z"
/>
<path fill="#c790f1" d="
  M 46.19 58.94
  Q 53.00 51.84 61.58 48.73
  Q 71.63 45.08 80.75 51.00
  Q 84.90 53.69 86.30 57.86
  Q 87.57 61.65 86.02 66.10
  Q 84.15 71.48 79.46 75.21
  Q 75.27 78.54 70.87 81.59
  Q 56.01 91.87 51.28 109.37
  Q 49.78 114.91 48.37 120.47
  Q 47.77 122.84 47.17 123.77
  Q 45.72 126.04 43.69 124.19
  Q 42.87 123.44 41.95 121.73
  Q 35.10 109.04 33.91 94.95
  Q 33.00 84.17 35.82 75.79
  Q 38.94 66.48 46.19 58.94
  Z"
/>
</svg>
